<svg id="レイヤー_1" data-name="レイヤー 1" xmlns="http://www.w3.org/2000/svg" viewBox="0 0 385 499">
  <defs>
    <style>
      .cls-1 {
        fill: #231815;
      }

      .cls-2 {
        fill: #fff;
      }

      .cls-3 {
        fill: none;
        stroke: #231815;
        stroke-miterlimit: 10;
        stroke-width: 40px;
      }
    </style>
  </defs>
  <title>KUBUS ROGO CS2</title>
  <g>
    <path class="cls-1" d="M330,463v67H318V463Zm-12,42,42-42h17l-53,53Zm20-19,45,45H366l-36-36Z" transform="translate(-254 -32)"/>
    <path class="cls-1" d="M386,463v35a25,25,0,0,0,1,8l3,6,5,4,6,2,6-2,5-4,3-6a25,25,0,0,0,1-8V463h12v35a37,37,0,0,1-2,13,33,33,0,0,1-6,10l-9,7-11,2-11-2-9-7a33,33,0,0,1-6-10,37,37,0,0,1-2-13V463Z" transform="translate(-254 -32)"/>
    <path class="cls-1" d="M477,482a17,17,0,0,1-1,7l-4,6,5,7a18,18,0,0,1,2,8,19,19,0,0,1-2,8l-5,7-7,4-9,2H433V462h31l7,4,4,6A18,18,0,0,1,477,482Zm-32,7h14l3-2,2-2v-3a6,6,0,0,0-1-3l-2-2-3-2H445Zm0,12v18h15l3-2,2-3a7,7,0,0,0,1-3,7,7,0,0,0-1-3l-2-3-3-2H445Z" transform="translate(-254 -32)"/>
    <path class="cls-1" d="M493,463v35a25,25,0,0,0,1,8l3,6,5,4,6,2,6-2,5-4,3-6a25,25,0,0,0,1-8V463h12v35a37,37,0,0,1-2,13,33,33,0,0,1-6,10l-9,7-11,2-11-2-9-7a33,33,0,0,1-6-10,37,37,0,0,1-2-13V463Z" transform="translate(-254 -32)"/>
    <path class="cls-1" d="M577,492a24,24,0,0,0-1-7l-3-6-4-4H560l-4,2-3,3a8,8,0,0,0-1,4h13l9,3,8,4,6,6a16,16,0,0,1,2,9,19,19,0,0,1-2,9,17,17,0,0,1-5,6l-8,4H565l-10-2-8-7a32,32,0,0,1-5-10,36,36,0,0,1-2-12h12a25,25,0,0,0,1,7l3,6,4,4h14l3-2a7,7,0,0,0,1-4,4,4,0,0,0-1-3l-4-3-5-2-6-2-8-3-7-3-5-5a13,13,0,0,1-2-7,21,21,0,0,1,2-9,18,18,0,0,1,5-6l8-4h9l10,2,8,6a31,31,0,0,1,5,10,36,36,0,0,1,2,12Z" transform="translate(-254 -32)"/>
  </g>
  <polygon class="cls-2" points="337 99 191 168 45 96 190 22 337 99"/>
  <polygon class="cls-3" points="337 99 191 168 45 96 190 22 337 99"/>
  <polygon class="cls-2" points="21 316 170 391 169 206 20 132 21 316"/>
  <polygon class="cls-3" points="21 316 170 391 169 206 20 132 21 316"/>
  <polygon class="cls-2" points="215 393 365 329 363 134 213 206 215 393"/>
  <polygon class="cls-3" points="215 393 365 329 363 134 213 206 215 393"/>
</svg>
